<?xml version="1.0" encoding="UTF-8"?>
<svg id="Layer_1" data-name="Layer 1" xmlns="http://www.w3.org/2000/svg" viewBox="0 0 1080 1080">
  <defs>
    <style>
      .cls-1 {
        fill: none;
        stroke: #020202;
        stroke-linecap: round;
        stroke-linejoin: round;
        stroke-width: 11.49px;
      }
    </style>
  </defs>
  <polygon class="cls-1" points="947.06 302.79 947.06 303.6 166.41 303.6 166.41 302.79 240.2 246.34 872.46 246.34 947.06 302.79"/>
  <g>
    <path class="cls-1" d="M230.93,317.31c-1.23,19.02,1.65,40.1,0,58.87-.23,1.34-.46,3.71-.81,4.84-1.89,6.2-9.2,15.29-15.32,17.74-.33.13-2.16.74-2.42.81-.64.17-3.06.78-3.23.81-5.04.71-20.64.62-25.81,0-.57-.07-3.16-.61-4.03-.81-.09-.02-.28-.38-1.61-.81-4.88-2.32-13.01-10.22-14.52-15.32-.15-.5-.76-2.97-.81-3.23-2.91-18.13,1.85-44.71.4-63.71l68.15.81Z"/>
    <path class="cls-1" d="M315.6,326.98c.07,1.87-.05,3.78,0,5.65.14,3.37,0,9.14,0,12.9.04,3.74.1,7.55,0,11.29-.29,7.17.31,16.55-.81,23.39-.04.26-.67,2.8-.81,3.23-1.32,4.23-10.38,13.69-14.52,15.32-.37.15-2.1.72-2.42.81-.64.17-3.43.73-4.03.81-4.96.67-20.82.65-25.81,0-.61-.08-3.32-.62-4.03-.81-.21-.05-2.08-.67-2.42-.81-4.87-1.91-13.89-11.22-15.32-16.13-.22-.74-.78-2.29-.81-2.42-3.07-17.67,1.97-45.05.4-63.71h69.35c.04,3.42.99,7.16,1.21,10.48Z"/>
    <path class="cls-1" d="M397.86,317.31c-1.23,19.02,1.65,40.1,0,58.87-.21,1.33-.47,3.69-.81,4.84-.17.57-.6,1.91-.81,2.42-2.21,5.45-10.53,14.48-16.13,16.13-.53.16-3.37.71-4.03.81-4.89.73-20.73.6-25.81,0-.56-.07-3.15-.61-4.03-.81-.09-.02-.25-.38-1.61-.81-5.13-2.41-12.95-9.98-14.52-15.32-.22-.74-.78-2.29-.81-2.42-.98-5.65-.65-14.22-.81-20.16-.05-1.6.04-3.24,0-4.84-.29-10.48.56-20.76,0-31.45.14-2.4-.1-4.86,0-7.26h69.35Z"/>
    <path class="cls-1" d="M484.96,317.31c-1.76,18.61,2.35,41.6,0,59.68-.08.64-.61,3.22-.81,4.03-.03.14-.64,1.97-.81,2.42-2,5.57-10.55,14.5-16.13,16.13-.52.15-2.98.77-3.23.81-5.07.8-24.55.68-29.84,0-.59-.08-3.31-.62-4.03-.81-.22-.06-1.98-.64-2.42-.81-5.44-2.01-13.15-10.01-15.32-15.32-.21-.52-.62-1.82-.81-2.42-.34-1.12-.59-3.52-.81-4.84-1.68-18.74,1.25-39.87,0-58.87h74.19Z"/>
    <path class="cls-1" d="M561.57,379.4c-.02.17-.61,2.28-.81,3.23-1.98,5.92-9.4,14.62-15.32,16.94-.34.13-2.21.75-2.42.81-.72.18-3.41.72-4.03.81-3.89.52-14.6.47-18.55,0-.17-.02-2.26-.61-3.23-.81-7.69-2.53-14.91-9.32-17.74-16.94-.21-.65-.77-2.28-.81-2.42-.3-1.29-.63-3.5-.81-4.84-1.82-18.58,1.36-39.99,0-58.87l.81-.81h61.69c2.88,1.28,1.84,57.48,1.21,62.9Z"/>
    <path class="cls-1" d="M641.41,317.31c-1.27,19.26,1.7,40.68,0,59.68-.22,1.32-.47,3.72-.81,4.84-.18.6-.59,1.9-.81,2.42-2.3,5.64-9.68,13.02-15.32,15.32-.51.21-1.83.63-2.42.81-1.15.34-3.49.58-4.84.81-4.63.42-13.12.44-17.74,0-1.6-.27-4.37-.4-5.65-.81-7.06-2.27-15.35-10.72-17.74-17.74-.19-.91-.79-3.06-.81-3.23-2.31-19.1,1.4-43.29.4-62.9l65.73.81Z"/>
    <path class="cls-1" d="M722.86,380.21c-.04.26-.66,2.72-.81,3.23-1.42,4.8-10.72,14.14-15.32,16.13-.36.16-1.97.4-3.23.81-.23.07-4.41.77-4.84.81-1.84.17-3.79-.08-5.65,0-.51.03-4.81.02-5.65,0-2.64-.07-5.45.25-8.06,0-.9-.13-4.47-.68-4.84-.81-6.73-2.2-16.47-9.91-18.55-16.94-.17-.59-.73-2.78-.81-3.23-.76-4.26-.43-9.97-.81-14.52-.27-6.6-1.19-43.2,0-46.77.04-.13,1.22-1.32,1.21-2.42h66.13c2.91,1.29,1.96,59,1.21,63.71Z"/>
    <path class="cls-1" d="M805.12,380.21c-.04.26-.66,2.72-.81,3.23-1.49,5.04-11.02,14.6-16.13,16.13-.71.21-2.29.78-2.42.81-3.54.63-26.38.65-29.84,0-6.58-1.24-16.74-11.33-18.55-17.74-.16-.58-.76-2.96-.81-3.23-.74-4.72-1.67-61.63,1.21-62.9h66.94c-1.44,19,3.31,45.58.4,63.71Z"/>
    <path class="cls-1" d="M870.44,316.5l.81.81c-.43,13.12.58,26.41,0,39.52-.28,4.37-.28,9.45-.81,13.71-.2,1.64-.47,4.08-.81,5.65-.26,1.21-.49,2.98-.81,4.03-.2.66-.56,1.78-.81,2.42-.36.96-.62,2.01-.81,2.42-2.14,4.8-10.37,13.05-15.32,14.52-.47.14-3.03.78-3.23.81-2.01.31-8.47.31-10.48,0-.16-.03-2.85-.69-3.23-.81-5.07-1.58-12.07-10.49-13.71-15.32-.23-.67-.63-2.43-.81-3.23-.23-1.02-.71-2.67-.81-3.23-.83-4.72-.44-11.11-.81-16.13-.55-14.73.41-29.61,0-44.35l51.61-.81Z"/>
    <path class="cls-1" d="M951.09,384.24c-1.42.07-.56,1.67-.81,2.42-1.02,3.05-8.95,11.06-12.1,12.1-.58.19-2.29.78-2.42.81-14.57,2.69-37.35-2.01-52.82,0-.7-14.22-.46-28.52-.4-42.74.47-13.41.99-26.88,1.21-40.32h66.13l1.21,67.74Z"/>
  </g>
  <g>
    <path class="cls-1" d="M415.6,465.5l.81,115.73c-1.97,0-4.96,1.06-6.45,1.21-1.05.1-2.17-.04-3.23,0-9.94.38-19.7-2.14-29.84,0-4.92,1.04-5.56.17-7.26,5.65-.84,2.69-.68,1.49,0,4.03.63,2.34,1.98,5.76,4.44,6.45,6.3,1.76,38.75-1.71,41.53,0l-.4,99.19h-154.03l-.4-232.26h154.84Z"/>
    <g>
      <path class="cls-1" d="M257.54,407.44c1.11.47,1.45.5,2.42.81,1.21.35,1.97.55,3.23.81,2.1.4,3.5.63,5.65.81,8.05.99,14.53,1.08,22.58,0,2.17-.17,3.51-.37,5.65-.81,1.37-.28,1.75-.59,2.42-.81.96-.31,1.3-.32,2.42-.81,7.65-2.75,10.69-4.89,16.13-10.89,1.35-1.49,2.96-6.58,3.23-6.85.13-.13.59.12.81,0,4.17,8.9,10.29,14.3,19.35,17.74,1.22.55,1.48.5,2.42.81.7.23,1.05.53,2.42.81,1.8.37,2.95.64,4.84.81,8.43,1.11,15.76,1.11,24.19,0,1.89-.16,3.04-.44,4.84-.81,1.37-.28,1.72-.58,2.42-.81.94-.31,1.2-.25,2.42-.81,9.76-3.71,13.72-8.55,19.76-16.94,4.58,8.81,10.57,13.61,19.76,16.94,1.17.51,1.49.5,2.42.81.7.23,1.05.53,2.42.81,2.13.44,3.47.63,5.65.81,9.27,1.16,18.97,1.48,28.23,0,1.55-.15,2.68-.57,4.03-.81.98-.27,1.51-.48,2.42-.81,10.73-2.85,16.13-8.3,22.18-17.74,4.23,9.99,11.84,15.87,22.18,18.55,1.35.44,1.96.51,3.23.81,2.63.42,4.6.64,7.26.81,5.11.48,7.79.49,12.9,0,2.12-.19,3.56-.41,5.65-.81,1.23-.26,2.03-.47,3.23-.81.99-.31,1.3-.33,2.42-.81,9.56-3.43,15.29-8.56,19.76-17.74,4.78,8.65,10.97,14.97,20.56,17.74,1.01.4,1.42.51,2.42.81.69.13,1.61.63,3.23.81,8.27,1.5,18.33,1.39,26.61,0,1.57-.16,2.62-.53,4.03-.81,1-.3,1.4-.4,2.42-.81,9.43-2.84,15.64-9.17,20.16-17.74h.81c3.47,8.57,11.25,15.16,20.16,17.74,1.01.4,1.42.51,2.42.81.68.13,1.61.63,3.23.81,8.6,1.56,20.43,1.56,29.03,0,1.61-.18,2.54-.68,3.23-.81,1-.3,1.41-.4,2.42-.81,9.21-2.66,17.13-9.61,20.56-18.55,3.85,8.89,11.18,15.72,20.56,18.55,1.02.41,1.42.51,2.42.81,1.41.27,2.46.64,4.03.81,8.97,1.5,19.24,1.32,28.23,0,1.63-.21,2.46-.4,4.03-.81,10.54-2.58,17.97-8.93,22.98-18.55,5.58,8.4,8.71,14.53,18.95,17.74,1.13.48,1.44.5,2.42.81.77.16,1.65.61,3.23.81,5.29,1.05,8.42,1.06,13.71,0,1.56-.19,2.53-.67,3.23-.81,1-.3,1.41-.4,2.42-.81,7.5-2.17,14.65-6.95,17.74-14.52l1.21-.81c.65.19.4,1.67.4,2.42.11,100.75-1.42,201.64-1.21,302.42h-441.13l-1.21-241.13-3.63-4.84h-179.03c-1.98,2.11-4.33,3.22-3.63,6.45l-.81,239.11-39.52-.81v-285.48c1.05.01,2.29-1.16,2.42-1.21,1.26-.48,2.93.37,5.65-.81.55-.24,1.12-.2,2.42-.81,9.92-3.16,17.45-8.98,21.77-18.55h.81c3.3,9.07,10.6,14.58,19.35,17.74Z"/>
      <g>
        <path class="cls-1" d="M839.8,457.44v139.52l-5.65,5.65h-358.87l-5.65-6.45v-137.9c.52-2.18,2.94-4.08,4.44-5.65h361.29l4.44,4.84Z"/>
        <polygon class="cls-1" points="825.28 465.5 826.09 588.08 484.56 588.89 484.96 465.5 825.28 465.5"/>
      </g>
    </g>
  </g>
  <g>
    <path class="cls-1" d="M187.78,711.66h704.84c2.89,3.31,22.35,19.21,22.98,21.37.23.79.26,12.31,0,12.9l-749.6,1.21c-5.33-18.01,12.03-23.9,21.77-35.48Z"/>
    <polygon class="cls-1" points="122.46 760.05 957.94 760.05 958.35 795.94 121.65 796.34 122.46 760.05"/>
  </g>
</svg>