<?xml version="1.0" encoding="UTF-8"?>
<svg id="Layer_1" data-name="Layer 1" xmlns="http://www.w3.org/2000/svg" viewBox="0 0 1080 1080">
  <defs>
    <style>
      .cls-1 {
        fill: #020304;
      }

      .cls-2 {
        fill: #030305;
      }

      .cls-3 {
        fill: none;
        stroke: #000;
        stroke-miterlimit: 10;
        stroke-width: 17.66px;
      }

      .cls-4 {
        fill: #030405;
      }
    </style>
  </defs>
  <path class="cls-3" d="M631.25,378.34l.55-40.47,80.17.02.56,39.84c.18,12.56,12.8,20.89,24.98,21.21s25.43-8.56,25.65-21.12l.7-39.82,47.95-.3c20.61-1.49,38.1,13.48,38.09,33.58l-.02,57.94H230.09s.12-59.2.12-59.2c.04-17.81,14.89-31.3,32.96-32.3l53.47.13.92,41.14c.28,12.42,14.01,20.35,26.3,19.9,11.24-.41,23.9-8.94,24.06-21.18l.51-39.77,80.03-.21.52,39.95c.16,12.63,12.59,21.03,24.85,21.23,12.07.2,25.23-8.39,25.39-21.21l.51-39.79,80.6-.19,1.1,42.52c.31,12.03,14.29,19.1,26.09,18.64,10.67-.42,23.57-8.28,23.74-20.55Z"/>
  <path class="cls-3" d="M818.98,814.94l-555.68.06c-17.63-1.07-33.14-14.11-33.14-31.81v-338.86s619.7.04,619.7.04l-.16,340.12c0,16-14.57,27.88-30.72,30.45Z"/>
  <path class="cls-3" d="M472.76,721.61c17.71-4.35,31.32-19.64,34.55-37.21,3.45-18.81-6.62-34.29-23.47-42.78-7.47-3.76-15.47-9.29-16.37-18.04-.75-7.29,5.42-14.85,11.45-18.33,12.96-7.49,18.52-18.8,19.38-33.09.81-13.37-2.09-25.13-12.66-33.36-10.4-8.1-24.59-11.01-37.43-4.91-20.28,9.63-18.72,31.82-29.05,42.81-2.72,2.89-6.51,5.22-10.21,4.68-13.24-1.95-15.82-25.29-4.04-44.35,17.58-28.42,56.74-42.1,89.52-28.66,37.65,15.44,51.46,60.18,32.42,93.26-5.31,9.22-11.96,15.02-21.9,20.24,26.61,11.22,41.46,38.21,38.6,66.2-2.55,24.94-19.64,45.63-39.72,56.25-25.23,13.34-54.06,12.39-77.31-.87-23.22-13.23-36.08-39.11-31.34-64.21,1.73-9.17,9.06-16.38,17.61-14.3,14.24,3.47,10.63,27.79,24.37,43.65,9.01,10.4,21.77,16.42,35.59,13.02Z"/>
  <path class="cls-3" d="M635.8,737.17l-.1-178.81c-8.9,6.88-13.66,14.46-22.29,19.58-7.71,4.58-20.5,5.33-24.06-4.64-2.62-7.35,2.67-16.13,8.23-21.66l40.09-39.85c6.27-6.23,15.75-10.25,24.18-6.86,7.22,2.9,9.59,10.85,9.55,17.36l-.39,65.44.41,143.95c.03,11.79-10.08,20.53-21.44,20.15-8.09-1.16-11.23-6.72-14.2-14.66Z"/>
  <path class="cls-2" d="M739.11,388.63c-9.14,0-16.6-7.07-16.72-15.89l-1.17-87.57c-.12-8.89,7.27-16.19,16.51-16.3,9.22-.12,16.82,7,16.94,15.89l1.17,87.57c.12,8.89-7.27,16.19-16.51,16.3-.07,0-.15,0-.22,0Z"/>
  <path class="cls-2" d="M606.59,389.93c-9.21,0-16.7-7.17-16.73-16.05l-.32-92.73c-.03-8.89,7.43-16.12,16.67-16.15h.06c9.21,0,16.7,7.17,16.73,16.05l.32,92.73c.03,8.89-7.43,16.12-16.67,16.15h-.06Z"/>
  <path class="cls-1" d="M475.28,391.21c-9.23,0-16.72-7.2-16.73-16.09l-.07-91.44c0-8.89,7.48-16.1,16.71-16.11h.01c9.23,0,16.72,7.2,16.73,16.09l.07,91.44c0,8.89-7.48,16.1-16.71,16.11h-.01Z"/>
  <path class="cls-4" d="M342.82,389.92h-.01c-9.24,0-16.72-7.22-16.72-16.11l.06-90.15c0-8.89,7.49-16.09,16.73-16.09h.01c9.24,0,16.72,7.22,16.72,16.11l-.06,90.15c0,8.89-7.49,16.09-16.73,16.09Z"/>
</svg>