<?xml version="1.0" encoding="UTF-8"?>
<svg id="Layer_1" data-name="Layer 1" xmlns="http://www.w3.org/2000/svg" viewBox="0 0 1080 1080">
  <defs>
    <style>
      .cls-1, .cls-2, .cls-3, .cls-4 {
        stroke: #070909;
      }

      .cls-1, .cls-2, .cls-3, .cls-4, .cls-5, .cls-6 {
        fill: none;
        stroke-linecap: round;
        stroke-linejoin: round;
      }

      .cls-1, .cls-5 {
        stroke-width: 18.46px;
      }

      .cls-2 {
        stroke-width: 13.43px;
      }

      .cls-3 {
        stroke-width: 21.82px;
      }

      .cls-4 {
        stroke-width: 5.04px;
      }

      .cls-5 {
        stroke: #070809;
      }

      .cls-6 {
        stroke: #626366;
        stroke-width: 3.36px;
      }
    </style>
  </defs>
  <g id="Generative_Object" data-name="Generative Object">
    <path class="cls-5" d="M917.49,534.13c-65.05,11.21-58.59-13.33-60.07-65.04-1.43-49.85,5.99-129.85,31.89-172.88,5.06-8.41,15.63-27.54,26.52-26.18l8.39,7.72c1.46,173.48.06,346.9,7.05,520.31-8.69,22.85-38.87,20.7-44.31-3.36l10.71-251.75"/>
    <path class="cls-1" d="M533.24,346.44c255.13-14.42,277.93,372.28,22.91,387.93-256.24,15.72-279.05-373.45-22.91-387.93Z"/>
    <path class="cls-5" d="M531.53,277.32c-347.02,16.98-321.14,543.19,25.61,526.23,346.87-16.97,320.9-543.18-25.61-526.23Z"/>
    <line class="cls-6" x1="195.79" y1="479.16" x2="195.79" y2="509.37"/>
    <path class="cls-1" d="M148.73,264.33l1.4,161.13c5.93,29.22,31.69,28.33,35.96,46.89,3.72,99.7-17.12,210.87-13.13,308.93,1.82,44.76,42.72,43.37,48,10.07,7.34-46.2-9.14-170.15-11.41-224.91-1.33-31.96,1.9-64.59-5.2-96.37"/>
    <path class="cls-3" d="M242.78,264.33v159.45c-1.96,25.18-24.84,29.95-38.43,46.29"/>
    <line class="cls-1" x1="212.57" y1="391.88" x2="212.57" y2="264.33"/>
    <line class="cls-2" x1="163.91" y1="396.59" x2="236.82" y2="400.5"/>
    <line class="cls-1" x1="182.36" y1="390.21" x2="182.36" y2="264.33"/>
    <line class="cls-4" x1="192.98" y1="472.06" x2="204.35" y2="470.07"/>
  </g>
</svg>