<?xml version="1.0" encoding="UTF-8"?>
<svg id="Layer_1" data-name="Layer 1" xmlns="http://www.w3.org/2000/svg" viewBox="0 0 1080 1080">
  <defs>
    <style>
      .cls-1 {
        stroke: #eceded;
      }

      .cls-1, .cls-2, .cls-3 {
        fill: none;
        stroke-linecap: round;
        stroke-linejoin: round;
      }

      .cls-1, .cls-3 {
        stroke-width: 2.6px;
      }

      .cls-2 {
        stroke: #020202;
        stroke-width: 14.3px;
      }

      .cls-3 {
        stroke: #eeefef;
      }

      .cls-4 {
        fill: #f6f4f4;
      }
    </style>
  </defs>
  <path class="cls-1" d="M757.52,712.65c-6.12-10.72-16.95-19.66-28.6-23.92-13.18-4.82-35.85-1.84-45.5,9.62"/>
  <path class="cls-4" d="M401.25,620.03c2.76,11.58,2.61,28.62,16.94,30.21,0,0,309.42,0,309.42,0,.72,0,1.3.58,1.3,1.3,0,.72-.58,1.3-1.3,1.3-.01,0-309.54.01-309.58,0-7.46-.73-12.85-5.94-15.07-12.9-2.25-6.43-2.72-13.07-4.23-19.28-.19-2.77-2.13-13.27.48-14.21.88,4.39,1.49,9.14,2.05,13.58h0Z"/>
  <path class="cls-3" d="M224.48,256.32c68.19-8.75,98.61,19.34,109.21,85.81"/>
  <path class="cls-2" d="M343.45,347.24c-10.33-42.39-19.7-88.53-69.56-98.98-9.19-1.93-65.4-6.44-56.94,11.96,4.5,9.8,44.77,3.31,55.64,5.2,41.44,7.2,46.12,53.63,55.55,86.88,22.61,79.76,48.13,173.28,64.53,254.04,3.75,18.45-4.06,47.38,22.93,53.01l314.62,1.3"/>
  <path class="cls-2" d="M407.29,611.28c1.19,7.14,1.76,24.8,7.26,29.35,12.18,10.07,278.8-4.33,315.66,2.34,23.36,10.65-20.23,28.94-26.68,33.02-19.55,12.37-35.18,15.79-44.31,40.84-.16.45-.32.9-.47,1.35-16.81,49.88,36.52,94.76,82.8,69.73,45.84-24.79,38.26-92.21-11.66-107.08-5.89-1.75-11.96-2.04-17.99-2.8"/>
  <path class="cls-2" d="M334.33,353.68l7.95-.12c173.78-2.69,347.91-.19,521.64.98-19.63,62.46-38.21,131.08-62.99,191.71-12.17,29.79-17.08,54.6-53.82,59.54-112.11-6.7-231.77,7.73-343.01-.82l-6.71-.51"/>
  <path class="cls-2" d="M480.63,660.67c-10.22,2.22-17.33,10.28-25.98,15.33-.79.46-1.49,1.06-2.28,1.53-37.75,22.21-71.71,58.28-29.91,100.09,70.93,70.97,162.98-81.45,38.64-99.77"/>
</svg>