<?xml version="1.0" encoding="UTF-8"?>
<svg id="Layer_1" data-name="Layer 1" xmlns="http://www.w3.org/2000/svg" viewBox="0 0 1080 1080">
  <defs>
    <style>
      .cls-1 {
        fill: #231f20;
      }

      .cls-2 {
        fill: none;
        stroke: #231f20;
        stroke-linecap: round;
        stroke-linejoin: round;
        stroke-width: 17.56px;
      }
    </style>
  </defs>
  <path class="cls-1" d="M797.67,356.98c-10.04,39.52,11.57,42.12,31.98,68.44,8.13,10.43,13.56,22.83,16.15,35.75,1.35,6.64,1.95,13.35,1.36,20.25-.4,4.47-4.09,7.86-8.47,7.97-.07.02-99.56,2.12-99.64,2.14-4.36.09-8.05-3.02-8.8-7.19-3.88-23.08,5.51-45.83,19.46-63.63,4.64-5.8,9.92-11.16,16.03-15.78,7.49-6.24,15.89-12.39,24.25-17.78,3.64,13.16-4.76,23.75-13.7,31.82-4.7,3.56-9.03,7.91-12.85,12.69-10.78,13.7-18.82,32.01-15.92,49.5,0,0-8.82-7.19-8.82-7.19,0,0,99.54-2.14,99.54-2.14,0,0-8.55,7.97-8.55,7.97.96-15.23-4.57-31.58-13.97-43.69-7.05-9.32-15.92-16.15-24.14-25.26-15.5-16.71-16.28-36.86-10.95-58.04,3.19-11.22,19.41-7.31,17.06,4.18h0Z"/>
  <line class="cls-2" x1="391.14" y1="668.76" x2="694.32" y2="668.76"/>
  <path class="cls-2" d="M545.07,388.24c-60.75,47.51-183.52,107.26-185.67,194.92-.34,13.93,8.33,59.15,19.26,67.41,13.28,10.04,283.15-3.25,321.02,2.14,22.18-6.43,27.74-62.11,24.97-82.04-11.59-83.17-123.81-130.62-179.57-182.43Z"/>
  <path class="cls-2" d="M534.89,266c-16.2,13.99-23.97,35.97-7.49,53.21,5.89,6.16,20.65,9.23,23.9,16.5,4.5,10.05-5.3,40.75-6.22,52.54"/>
  <line class="cls-2" x1="537.77" y1="331.71" x2="545.07" y2="388.24"/>
  <path class="cls-2" d="M534.89,266c-2.76,20.26-5.79,50.65,23.9,51.07,48.24.69,14.32-60.56-23.9-51.07Z"/>
  <path class="cls-2" d="M296.51,354.88c2.33,10.53-1.9,37.49,2.02,45.72,3.56,7.46,27.32,22.47,36.96,38.1,7.13,11.55,11.38,28.33,10.87,41.91l-96.12,2.68s-.08-54.27,30.56-72.38"/>
  <path class="cls-2" d="M699.73,809.65c-.35-36.57,5.89-86.56-44.64-90.95-56.22-4.88-52.35,53.4-53.86,90.92"/>
  <path class="cls-2" d="M749.61,809.65l-.49-276.4c-1.49-10.18-34.31-26.93-10.21-32.84,5.22-1.28,98.82-1.61,103.44.71l-8.07,313.88-578.32-1.07-2.14-289.63"/>
  <path class="cls-2" d="M589.36,809.63c-.34-37.35,2.08-96.78-53.76-90.94-50.14,5.25-43.22,54.48-42.8,90.95"/>
  <path class="cls-2" d="M478.53,809.65c.96-36.74,5.59-86.64-44.59-90.95-54.51-4.69-53.03,53.6-49.94,90.95"/>
  <line class="cls-2" x1="344.77" y1="690.16" x2="744.26" y2="690.16"/>
  <line class="cls-2" x1="341.8" y1="520.66" x2="337.61" y2="809.65"/>
  <line class="cls-2" x1="795.98" y1="524.3" x2="795.98" y2="809.65"/>
  <line class="cls-2" x1="293.05" y1="524.3" x2="293.05" y2="809.65"/>
  <path class="cls-2" d="M341.8,520.66c6.49-1.9,12.16-4.81,12.25-12.41-.74-6.82-7.53-7.74-12.84-8.92-4.59-1.01-89.5-1.21-93.99.18-8.97,2.78-13.34,10.8-5.47,16.88,3.98,3.08,94.82,5.79,100.05,4.26Z"/>
  <line class="cls-2" x1="751.39" y1="518.95" x2="833.43" y2="518.95"/>
</svg>